<?xml version="1.0" encoding="UTF-8" standalone="no"?>
<!DOCTYPE svg PUBLIC "-//W3C//DTD SVG 1.1//EN" "http://www.w3.org/Graphics/SVG/1.1/DTD/svg11.dtd">
<svg xmlns="http://www.w3.org/2000/svg" version="1.1" viewBox="0.00 0.00 639.00 391.00">
<path fill="#cd9933" d="
  M 195.64 3.72
  Q 195.43 3.69 195.45 3.48
  L 195.45 3.47
  Q 195.47 3.26 195.68 3.28
  Q 199.32 3.68 202.22 3.68
  Q 244.80 3.66 287.86 3.40
  Q 288.07 3.40 288.09 3.61
  L 288.11 3.86
  Q 288.12 3.92 288.06 3.93
  Q 280.41 5.19 275.40 11.31
  Q 271.12 16.52 272.89 22.84
  Q 275.08 30.70 278.10 38.92
  C 280.28 44.88 281.41 50.84 283.81 56.88
  A 0.53 0.53 0.0 0 1 283.61 57.52
  Q 279.21 60.40 274.74 63.13
  Q 271.83 64.91 269.39 66.87
  C 265.48 70.01 261.41 73.17 257.92 76.86
  Q 254.96 79.99 252.07 82.88
  C 250.69 84.25 249.78 85.88 248.47 87.33
  A 0.42 0.41 55.9 0 1 247.77 87.19
  Q 244.12 76.96 241.14 66.21
  C 237.53 53.16 233.35 41.13 228.91 28.79
  Q 227.86 25.85 224.18 19.76
  C 219.34 11.75 212.15 6.66 203.00 4.96
  Q 199.49 4.31 195.64 3.72
  Z"
/>
<path fill="#cd9933" d="
  M 395.72 11.99
  Q 393.50 10.20 390.00 10.07
  Q 383.40 9.82 376.15 9.81
  C 368.61 9.80 361.10 12.28 358.71 20.31
  Q 354.73 33.73 350.44 45.76
  A 1.12 1.12 0.0 0 1 349.17 46.47
  L 347.62 46.14
  Q 346.74 45.96 346.96 45.08
  Q 350.16 32.56 354.08 21.66
  Q 355.03 19.03 354.92 16.40
  C 354.71 11.23 346.47 6.66 342.42 5.64
  Q 339.47 4.90 336.46 4.12
  Q 334.02 3.48 336.54 3.48
  L 432.71 3.49
  Q 434.60 3.49 432.77 3.95
  Q 421.92 6.67 412.70 13.45
  Q 408.38 16.62 405.30 20.97
  C 402.27 25.25 400.26 28.58 398.75 33.73
  Q 395.22 45.79 391.17 57.55
  A 0.67 0.66 -69.7 0 1 390.30 57.96
  L 387.39 56.87
  Q 386.55 56.56 386.77 55.69
  Q 389.22 46.21 392.12 37.69
  Q 394.99 29.28 396.92 22.44
  C 397.72 19.60 398.34 14.10 395.72 11.99
  Z"
/>
<path fill="#cd9933" d="
  M 414.90 113.03
  Q 414.91 113.08 414.91 113.13
  Q 414.91 113.19 414.86 113.23
  Q 414.73 113.31 414.60 113.24
  Q 414.39 113.13 414.31 112.93
  Q 411.37 105.37 407.37 98.33
  Q 405.07 94.29 402.43 91.20
  C 399.94 88.30 397.70 85.12 394.78 82.62
  C 391.21 79.56 387.78 76.04 383.71 73.71
  Q 380.93 72.12 378.21 70.27
  C 375.27 68.27 372.04 66.91 368.87 65.28
  Q 367.09 64.37 364.89 63.75
  Q 360.81 62.60 356.51 61.54
  Q 338.46 57.07 320.84 61.20
  C 316.03 62.32 310.58 63.56 306.35 65.70
  Q 296.43 70.72 291.25 75.43
  Q 287.67 78.68 284.41 82.16
  Q 281.38 85.39 279.49 88.49
  C 277.51 91.73 274.79 94.75 273.14 98.16
  Q 263.29 118.42 261.10 134.54
  Q 259.04 149.68 260.19 168.78
  C 261.10 183.83 265.58 198.57 271.64 212.01
  Q 275.12 219.73 281.14 228.31
  Q 289.99 240.91 301.75 248.09
  C 312.50 254.64 324.57 259.73 336.85 259.90
  Q 350.81 260.09 357.49 258.83
  Q 368.07 256.82 376.59 252.71
  Q 380.72 250.71 384.94 248.73
  A 0.91 0.89 77.8 0 0 385.46 247.91
  Q 385.51 217.73 385.46 183.47
  C 385.44 172.77 384.95 161.37 373.37 157.18
  Q 368.12 155.28 359.17 155.50
  A 1.67 1.67 0.0 0 1 357.46 153.79
  L 357.52 150.97
  Q 357.55 149.73 358.78 149.73
  L 436.86 149.72
  Q 439.92 149.72 437.00 150.64
  C 434.76 151.35 432.19 151.50 430.17 152.56
  C 425.37 155.07 418.82 160.69 417.79 166.56
  Q 416.32 174.94 416.33 184.67
  Q 416.35 217.75 416.37 251.01
  A 1.21 1.20 74.8 0 1 415.78 252.05
  C 410.21 255.32 405.05 257.77 398.51 260.15
  C 389.91 263.28 382.41 266.55 372.51 268.15
  Q 351.99 271.46 332.59 270.46
  Q 327.67 270.20 313.97 268.60
  Q 308.81 268.00 303.84 266.78
  C 297.60 265.25 291.73 262.73 285.70 260.36
  Q 281.24 258.61 277.59 256.45
  Q 271.43 252.81 264.92 248.27
  C 261.42 245.84 258.66 242.75 255.44 240.00
  Q 252.41 237.42 250.01 234.14
  C 247.70 230.98 244.82 228.29 242.69 224.97
  Q 236.07 214.64 233.58 209.17
  Q 218.32 175.64 225.83 139.08
  Q 226.95 133.61 228.85 128.56
  C 230.66 123.77 232.01 118.62 234.27 113.99
  Q 238.87 104.55 244.07 96.48
  Q 245.76 93.85 248.06 91.21
  C 249.91 89.07 251.06 86.59 253.16 84.53
  Q 257.53 80.26 261.59 75.75
  C 262.71 74.51 264.14 73.85 265.32 72.82
  Q 278.81 61.07 296.08 54.31
  Q 300.30 52.65 311.39 50.33
  Q 331.35 46.14 351.40 48.73
  C 358.34 49.63 365.10 51.78 371.75 53.50
  C 379.56 55.52 387.03 60.12 394.94 61.43
  C 401.89 62.59 403.76 53.00 403.72 48.23
  A 0.57 0.57 0.0 0 1 404.30 47.65
  L 408.67 47.75
  Q 409.58 47.77 409.65 48.67
  Q 412.25 81.24 415.00 111.67
  Q 415.05 112.22 414.92 112.70
  Q 414.88 112.87 414.90 113.03
  Z"
/>
<path fill="#cd9933" d="
  M 313.85 149.66
  Q 314.25 150.63 314.54 149.62
  Q 321.10 127.12 328.64 104.31
  C 329.37 102.11 329.64 99.68 330.36 97.57
  Q 335.25 83.24 341.29 62.54
  A 1.67 1.65 8.3 0 1 342.90 61.35
  L 344.52 61.38
  Q 345.79 61.40 345.35 62.59
  Q 342.65 69.88 340.65 77.08
  Q 338.48 84.84 336.34 91.35
  C 333.92 98.66 331.42 105.56 329.53 112.83
  Q 328.47 116.92 327.41 120.10
  Q 324.39 129.18 321.30 138.52
  C 319.71 143.35 318.73 148.20 316.73 152.93
  C 316.07 154.48 316.39 156.45 316.98 158.02
  C 318.76 162.74 319.53 167.65 321.02 172.32
  C 324.31 182.63 327.67 192.91 330.50 203.74
  Q 332.31 210.67 334.91 217.85
  Q 335.39 219.15 335.80 217.83
  L 354.89 156.45
  Q 355.12 155.68 355.67 156.26
  Q 356.84 157.49 358.73 157.34
  A 0.64 0.63 -85.3 0 1 359.39 158.13
  Q 358.50 161.58 357.52 164.74
  Q 353.64 177.22 349.50 189.57
  C 348.64 192.14 348.14 194.93 347.29 197.55
  Q 343.82 208.23 340.31 218.88
  C 339.48 221.40 338.97 223.96 338.32 226.48
  Q 338.19 226.95 337.70 226.96
  L 291.02 226.99
  A 0.49 0.48 -9.2 0 1 290.56 226.66
  Q 285.71 212.16 281.29 197.45
  Q 280.64 195.27 279.98 193.02
  Q 275.93 179.06 272.17 167.97
  C 270.99 164.47 270.32 160.51 269.10 156.92
  Q 265.88 147.42 263.16 138.08
  Q 262.77 136.75 263.01 135.25
  Q 264.68 124.42 268.93 113.33
  C 269.96 110.66 270.60 107.39 271.83 105.02
  Q 275.93 97.16 281.31 89.22
  C 283.91 85.38 287.00 82.47 290.20 79.29
  A 0.50 0.50 0.0 0 1 291.02 79.48
  Q 295.23 91.57 299.08 103.64
  C 299.66 105.45 299.91 107.34 300.53 109.14
  Q 304.01 119.22 307.36 129.40
  Q 308.89 134.07 310.37 139.57
  Q 311.63 144.25 313.85 149.66
  Z"
/>
<path fill="#cd9933" d="
  M 371.86 101.99
  Q 376.63 88.84 380.17 75.22
  Q 380.53 73.82 381.72 74.64
  Q 383.26 75.70 384.40 76.99
  A 1.84 1.83 34.8 0 1 384.74 78.85
  Q 381.76 86.66 379.22 95.55
  Q 378.61 97.67 377.90 99.95
  Q 374.87 109.76 371.40 120.44
  Q 369.26 127.04 367.33 133.67
  Q 365.35 140.44 363.08 146.76
  A 1.32 1.31 9.6 0 1 361.86 147.62
  L 358.99 147.64
  Q 357.76 147.64 358.09 146.46
  Q 361.53 134.19 365.36 123.62
  C 367.90 116.59 369.32 108.99 371.86 101.99
  Z"
/>
<path fill="#cd9933" d="
  M 541.17 305.48
  L 542.03 303.78
  Q 542.62 302.62 542.71 303.92
  C 542.97 307.88 539.28 310.14 535.85 308.49
  C 533.68 307.44 529.58 304.24 528.48 308.40
  Q 528.39 308.76 528.03 308.71
  L 527.74 308.67
  Q 527.60 308.65 527.61 308.52
  C 527.71 303.94 531.82 301.56 535.67 304.54
  Q 537.01 305.57 538.61 306.35
  A 1.93 1.93 0.0 0 0 541.17 305.48
  Z"
/>
<path fill="#cd9933" d="
  M 165.05 313.77
  Q 165.61 313.41 165.92 312.83
  Q 167.08 310.65 167.31 313.11
  Q 167.64 316.48 167.82 320.01
  Q 168.03 323.96 166.44 320.34
  Q 163.41 313.42 156.37 313.53
  C 151.74 313.61 147.51 317.25 146.44 321.53
  Q 144.62 328.76 146.35 334.83
  Q 147.29 338.11 151.12 340.86
  C 155.23 343.81 161.47 343.23 164.88 339.51
  Q 166.02 338.26 167.28 337.24
  Q 167.60 336.99 167.97 337.15
  A 0.38 0.38 0.0 0 1 168.13 337.71
  Q 162.94 345.62 154.87 345.02
  C 143.52 344.18 138.48 334.13 140.92 323.81
  Q 142.26 318.17 146.64 315.02
  Q 155.11 308.96 163.77 313.80
  Q 164.42 314.17 165.05 313.77
  Z"
/>
<path fill="#cd9933" d="
  M 245.12 343.62
  Q 244.90 344.31 244.47 344.82
  A 0.55 0.55 0.0 0 1 243.50 344.46
  L 243.48 334.54
  A 0.42 0.42 0.0 0 1 243.88 334.12
  Q 244.64 334.07 244.74 334.78
  C 245.47 339.87 249.12 342.82 254.12 342.96
  Q 256.64 343.03 258.48 341.62
  C 261.34 339.41 260.61 335.11 257.74 333.31
  Q 253.07 330.39 247.87 327.31
  C 238.86 321.99 244.24 311.48 253.05 311.74
  C 255.39 311.81 257.54 312.86 259.81 313.39
  Q 260.45 313.53 260.83 313.01
  L 261.54 312.03
  Q 262.14 311.21 262.15 312.23
  L 262.23 321.93
  Q 262.23 322.45 261.72 322.57
  Q 261.51 322.62 261.39 322.49
  C 260.87 321.93 260.76 318.99 260.24 317.99
  C 258.09 313.80 250.54 311.73 247.74 316.73
  C 245.35 320.99 253.72 325.49 256.56 326.68
  C 261.89 328.91 266.79 333.93 263.24 340.01
  Q 259.69 346.07 252.38 344.86
  C 250.17 344.49 248.21 343.63 246.03 343.11
  Q 245.33 342.94 245.12 343.62
  Z"
/>
<path fill="#cd9933" d="
  M 309.18 327.90
  Q 308.67 327.79 308.20 327.56
  Q 307.33 327.11 308.31 327.08
  Q 314.08 326.89 318.90 327.17
  Q 318.91 327.17 318.91 327.19
  L 318.89 327.50
  Q 318.88 327.73 318.65 327.73
  Q 315.95 327.68 315.87 330.24
  Q 315.69 336.10 315.80 341.39
  Q 315.81 341.97 315.31 342.25
  Q 308.46 346.06 300.92 344.75
  C 293.31 343.42 287.30 337.17 287.32 329.56
  C 287.34 318.14 295.77 310.06 307.37 312.00
  C 309.24 312.31 310.75 313.40 312.61 313.73
  Q 313.34 313.87 313.59 313.17
  Q 313.76 312.70 314.05 312.32
  Q 314.76 311.41 314.87 312.56
  L 315.69 321.08
  Q 315.71 321.24 315.55 321.28
  L 315.30 321.35
  Q 314.68 321.51 314.48 320.91
  C 311.96 313.42 303.29 311.28 297.33 316.00
  C 292.56 319.78 291.81 326.24 292.89 331.91
  C 294.43 340.10 301.59 345.75 310.11 341.97
  A 1.65 1.64 -12.3 0 0 311.09 340.45
  L 310.99 330.08
  A 2.25 2.25 0.0 0 0 309.18 327.90
  Z"
/>
<path fill="#cd9933" d="
  M 460.56 333.76
  L 449.18 333.73
  A 0.90 0.89 9.0 0 0 448.33 334.34
  Q 447.43 337.02 446.46 339.65
  Q 445.25 342.92 448.74 343.17
  A 0.41 0.41 0.0 0 1 449.13 343.58
  L 449.13 343.88
  Q 449.13 344.16 448.85 344.17
  Q 444.14 344.51 439.89 344.12
  Q 438.25 343.96 439.80 343.39
  Q 442.16 342.52 443.22 340.76
  C 446.07 336.04 447.34 331.02 449.53 326.18
  Q 452.71 319.18 455.86 312.05
  A 0.55 0.54 41.9 0 1 456.83 312.00
  C 457.60 313.34 457.78 314.87 458.43 316.31
  C 461.34 322.78 464.26 329.23 466.68 335.90
  C 467.73 338.79 469.19 342.89 472.82 343.25
  Q 472.95 343.26 472.99 343.38
  L 473.11 343.66
  A 0.44 0.44 0.0 0 1 472.70 344.26
  L 461.00 344.28
  Q 460.85 344.28 460.79 344.15
  L 460.66 343.89
  A 0.51 0.51 0.0 0 1 461.10 343.15
  Q 462.68 343.09 463.75 342.11
  A 1.07 1.06 -32.7 0 0 464.01 340.94
  L 461.34 334.29
  A 0.84 0.84 0.0 0 0 460.56 333.76
  Z
  M 449.77 331.04
  A 0.44 0.44 0.0 0 0 450.16 331.66
  L 459.34 331.92
  A 0.44 0.44 0.0 0 0 459.76 331.32
  L 455.49 319.96
  A 0.44 0.44 0.0 0 0 454.67 319.94
  L 449.77 331.04
  Z"
/>
<path fill="#cd9933" d="
  M 539.88 333.77
  L 529.11 333.66
  Q 528.44 333.65 528.07 334.22
  Q 525.90 337.59 525.35 341.40
  Q 525.26 342.04 525.77 342.44
  Q 526.70 343.17 528.22 343.16
  Q 528.68 343.16 528.69 343.62
  L 528.70 343.90
  Q 528.70 344.11 528.49 344.13
  Q 524.33 344.39 519.86 344.25
  Q 519.47 344.23 519.19 343.97
  Q 519.01 343.80 519.11 343.45
  A 0.41 0.40 3.3 0 1 519.44 343.16
  Q 521.59 342.82 522.74 340.83
  C 525.08 336.79 526.08 332.49 528.05 328.37
  Q 532.13 319.81 535.29 312.05
  A 0.47 0.47 0.0 0 1 536.16 312.05
  Q 539.76 320.54 543.80 329.49
  C 545.07 332.30 545.60 335.31 547.07 338.04
  C 548.52 340.76 549.08 342.85 552.73 343.34
  Q 552.87 343.36 552.86 343.49
  L 552.84 343.76
  Q 552.81 344.28 552.29 344.28
  L 541.24 344.30
  Q 539.49 344.30 540.94 343.32
  Q 541.54 342.91 542.21 342.79
  A 1.58 1.57 76.4 0 0 543.44 340.77
  Q 542.46 337.59 540.83 334.37
  Q 540.54 333.78 539.88 333.77
  Z
  M 529.19 331.25
  A 0.34 0.34 0.0 0 0 529.50 331.73
  L 539.15 331.82
  A 0.34 0.34 0.0 0 0 539.47 331.34
  L 534.74 320.30
  A 0.34 0.34 0.0 0 0 534.11 320.29
  L 529.19 331.25
  Z"
/>
<path fill="#cd9933" d="
  M 600.51 343.25
  Q 600.03 343.75 599.75 344.35
  Q 599.52 344.84 598.99 344.77
  Q 598.78 344.75 598.69 344.55
  Q 598.62 344.38 598.61 344.19
  Q 598.56 339.79 598.57 334.86
  A 0.54 0.54 0.0 0 1 599.13 334.32
  L 599.45 334.33
  A 0.30 0.30 0.0 0 1 599.74 334.57
  Q 601.05 341.72 607.52 342.87
  C 611.69 343.61 615.63 341.80 614.96 336.80
  Q 614.61 334.22 612.36 332.91
  Q 607.44 330.08 602.55 327.10
  C 598.77 324.79 597.13 320.18 599.42 316.47
  C 602.86 310.87 608.42 310.85 614.07 313.24
  Q 615.41 313.81 616.12 312.53
  Q 616.26 312.27 616.53 312.14
  Q 617.23 311.80 617.24 312.59
  L 617.34 322.28
  Q 617.35 322.77 616.88 322.66
  L 616.55 322.58
  A 0.33 0.32 2.7 0 1 616.30 322.31
  Q 615.72 318.33 613.98 316.38
  C 611.06 313.13 603.70 312.05 602.50 317.77
  C 601.58 322.19 610.17 326.08 613.23 327.50
  C 618.08 329.76 621.50 334.97 618.18 340.22
  Q 614.60 345.90 607.56 344.88
  C 605.43 344.58 603.48 343.71 601.45 343.02
  Q 600.90 342.83 600.51 343.25
  Z"
/>
<path fill="#cd9933" d="
  M 56.32 313.79
  L 54.23 313.48
  A 0.42 0.42 0.0 0 1 53.87 313.08
  L 53.86 312.83
  A 0.56 0.56 0.0 0 1 54.42 312.24
  L 66.46 312.20
  A 0.65 0.64 83.9 0 1 67.09 312.71
  L 67.17 313.07
  A 0.26 0.25 79.5 0 1 66.96 313.38
  L 64.05 313.85
  Q 63.40 313.96 63.25 314.60
  Q 62.87 316.18 62.85 317.82
  Q 62.69 329.57 62.98 341.26
  A 1.70 1.69 -84.6 0 0 64.32 342.88
  L 66.78 343.41
  Q 66.89 343.44 66.88 343.55
  L 66.85 343.87
  Q 66.83 344.26 66.44 344.26
  L 54.18 344.28
  A 0.22 0.21 83.2 0 1 53.97 344.11
  L 53.89 343.74
  A 0.44 0.44 0.0 0 1 54.32 343.20
  Q 57.99 343.23 58.07 340.06
  Q 58.34 329.31 58.05 315.74
  A 2.02 2.01 -86.6 0 0 56.32 313.79
  Z"
/>
<path fill="#cd9933" d="
  M 202.39 313.83
  Q 201.20 313.71 200.04 313.25
  Q 199.29 312.95 199.96 312.50
  Q 200.12 312.40 200.29 312.30
  Q 200.50 312.17 200.74 312.18
  Q 206.54 312.34 212.34 312.10
  A 0.65 0.64 4.6 0 1 213.00 312.87
  L 212.94 313.20
  A 0.41 0.40 6.8 0 1 212.53 313.52
  Q 208.94 313.38 208.84 316.79
  Q 208.60 325.58 208.92 334.13
  C 209.05 337.62 210.55 341.84 214.54 342.52
  C 220.60 343.55 226.38 340.76 226.59 334.08
  Q 226.87 325.19 226.66 316.44
  Q 226.58 313.26 223.19 313.65
  Q 222.49 313.73 222.26 313.08
  L 222.15 312.75
  A 0.42 0.42 0.0 0 1 222.55 312.19
  L 232.74 312.23
  Q 233.12 312.23 233.13 312.61
  L 233.13 312.98
  A 0.53 0.52 -89.5 0 1 232.60 313.51
  Q 229.50 313.46 229.18 316.23
  Q 228.31 323.65 228.82 330.54
  Q 229.17 335.32 227.86 338.44
  C 224.99 345.27 216.09 346.49 209.97 343.68
  C 205.14 341.47 203.99 336.48 204.13 331.43
  Q 204.34 324.20 204.08 317.25
  Q 204.02 315.83 203.39 314.52
  A 1.26 1.26 0.0 0 0 202.39 313.83
  Z"
/>
<path fill="#cd9933" d="
  M 351.13 313.64
  Q 350.17 313.72 349.52 313.07
  Q 348.87 312.41 349.80 312.36
  Q 354.79 312.09 359.84 312.33
  A 0.33 0.32 -83.6 0 1 360.14 312.71
  L 360.08 313.01
  A 0.47 0.46 2.4 0 1 359.66 313.39
  Q 356.62 313.62 356.28 316.39
  C 355.04 326.62 360.35 342.78 346.21 344.87
  C 338.35 346.02 331.32 342.07 331.26 333.49
  Q 331.21 325.34 331.20 316.38
  A 2.85 2.85 0.0 0 0 328.75 313.56
  L 327.57 313.40
  A 0.58 0.57 14.2 0 1 327.11 312.63
  Q 327.17 312.45 327.32 312.33
  Q 327.49 312.21 327.70 312.21
  Q 333.76 312.29 339.88 312.17
  Q 340.27 312.17 340.24 312.55
  L 340.22 312.92
  A 0.62 0.62 0.0 0 1 339.59 313.50
  Q 336.13 313.47 336.04 316.96
  Q 335.80 325.38 336.18 334.32
  Q 336.31 337.37 337.67 339.56
  C 341.03 344.96 350.26 343.11 352.82 337.93
  Q 353.76 336.03 353.84 332.95
  Q 354.05 323.65 353.86 316.10
  A 2.53 2.50 86.7 0 0 351.13 313.64
  Z"
/>
<path fill="#cd9933" d="
  M 397.71 319.33
  L 397.75 341.31
  A 1.66 1.65 1.5 0 0 399.31 342.95
  Q 400.35 343.01 401.27 343.43
  Q 402.69 344.06 401.14 344.15
  Q 396.84 344.41 392.15 344.16
  Q 389.52 344.03 391.97 343.06
  Q 392.14 342.99 393.24 342.91
  A 2.20 2.19 88.0 0 0 395.27 340.73
  Q 395.32 328.27 395.35 316.88
  Q 395.36 313.66 392.04 313.72
  A 1.18 1.16 75.1 0 1 391.00 313.11
  L 390.86 312.86
  Q 390.49 312.18 391.27 312.18
  L 398.80 312.26
  A 1.23 1.22 -13.7 0 1 399.86 312.90
  C 403.89 320.28 407.24 328.71 410.86 336.67
  A 0.40 0.39 44.6 0 0 411.58 336.67
  C 413.58 332.08 415.90 327.81 417.76 322.95
  Q 419.60 318.16 422.48 312.89
  Q 422.72 312.44 423.22 312.38
  Q 427.08 311.88 431.17 312.36
  A 0.37 0.37 0.0 0 1 431.47 312.86
  L 431.36 313.16
  A 0.81 0.81 0.0 0 1 430.45 313.67
  Q 427.29 313.06 427.27 316.33
  Q 427.20 327.86 427.30 341.07
  A 1.94 1.94 0.0 0 0 429.27 343.00
  Q 430.28 342.98 431.14 343.50
  Q 432.40 344.26 430.92 344.26
  L 418.64 344.27
  A 0.27 0.25 -12.9 0 1 418.41 344.14
  L 418.15 343.67
  A 0.25 0.24 71.1 0 1 418.32 343.31
  L 420.94 342.88
  A 1.85 1.85 0.0 0 0 422.49 341.07
  L 422.65 319.47
  Q 422.66 318.23 421.90 319.21
  Q 421.32 319.96 420.95 320.84
  Q 415.55 333.81 410.48 343.66
  A 0.73 0.73 0.0 0 1 409.17 343.64
  C 408.00 341.21 407.24 338.64 406.06 336.21
  Q 402.02 327.87 398.16 319.24
  A 0.24 0.23 33.1 0 0 397.71 319.33
  Z"
/>
<path fill="#cd9933" d="
  M 489.99 329.63
  L 490.04 340.95
  A 1.95 1.94 4.5 0 0 491.69 342.87
  L 494.38 343.28
  Q 494.71 343.33 494.69 343.66
  L 494.68 344.00
  Q 494.66 344.28 494.37 344.28
  L 481.58 344.26
  Q 481.14 344.26 481.17 343.81
  L 481.19 343.47
  A 0.33 0.32 -84.7 0 1 481.54 343.17
  Q 485.68 343.48 485.70 339.61
  Q 485.75 328.36 485.69 316.62
  Q 485.67 313.29 482.12 313.70
  Q 481.42 313.78 481.23 313.11
  L 481.13 312.76
  A 0.43 0.43 0.0 0 1 481.54 312.22
  Q 488.27 312.20 494.96 312.40
  C 500.01 312.55 506.00 314.91 505.91 320.59
  Q 505.84 325.03 502.08 327.18
  C 500.98 327.80 499.76 327.82 498.66 328.36
  Q 497.96 328.70 498.41 329.33
  Q 503.33 336.15 507.02 340.76
  Q 508.52 342.64 511.84 343.15
  Q 512.33 343.23 512.65 343.61
  Q 512.75 343.74 512.69 343.94
  Q 512.61 344.22 512.32 344.22
  L 504.88 344.27
  Q 504.18 344.28 503.79 343.70
  Q 501.41 340.22 498.61 336.93
  C 496.73 334.73 495.66 332.11 493.87 329.81
  A 1.54 1.53 73.1 0 0 492.77 329.22
  L 490.62 329.04
  Q 489.98 328.99 489.99 329.63
  Z
  M 489.93 314.65
  L 490.05 327.42
  A 0.21 0.21 0.0 0 0 490.26 327.63
  L 493.74 327.60
  A 6.61 6.34 -0.5 0 0 500.29 321.21
  L 500.29 320.69
  A 6.61 6.34 -0.5 0 0 493.62 314.40
  L 490.14 314.43
  A 0.21 0.21 0.0 0 0 489.93 314.65
  Z"
/>
<path fill="#cd9933" d="
  M 30.61 336.99
  Q 31.00 336.76 31.16 336.31
  Q 34.76 326.29 38.86 316.52
  A 1.82 1.81 -72.7 0 0 37.56 314.04
  Q 36.83 313.89 36.47 313.65
  Q 34.38 312.29 36.88 312.29
  Q 40.81 312.30 44.39 312.20
  Q 44.83 312.19 45.04 312.58
  Q 45.19 312.86 45.03 313.12
  Q 44.88 313.39 44.60 313.52
  Q 42.34 314.52 41.20 316.89
  Q 36.85 325.99 34.29 333.65
  C 33.02 337.45 31.05 340.81 29.82 344.63
  A 0.69 0.69 0.0 0 1 28.54 344.72
  Q 26.54 340.56 24.93 336.45
  C 22.37 329.96 19.60 323.79 16.60 317.40
  Q 15.96 316.04 15.09 314.65
  Q 14.80 314.18 14.26 314.03
  L 12.29 313.47
  Q 11.60 313.27 12.01 312.67
  Q 12.32 312.22 12.87 312.23
  Q 18.18 312.33 23.85 312.18
  Q 24.34 312.17 24.56 312.62
  Q 24.67 312.84 24.57 313.06
  Q 24.47 313.26 24.27 313.35
  Q 23.52 313.72 22.69 313.91
  A 1.69 1.69 0.0 0 0 21.47 316.14
  Q 25.31 326.59 30.08 336.83
  A 0.37 0.37 0.0 0 0 30.61 336.99
  Z"
/>
<path fill="#cd9933" d="
  M 102.27 334.83
  Q 102.78 325.19 102.07 314.87
  A 0.95 0.93 -86.4 0 0 101.32 314.01
  L 98.06 313.37
  A 0.47 0.47 0.0 0 1 97.68 312.98
  L 97.64 312.71
  A 0.33 0.33 0.0 0 1 97.96 312.33
  Q 102.97 312.17 106.82 312.25
  Q 110.97 312.33 107.05 313.72
  Q 106.79 313.82 105.52 313.92
  Q 105.00 313.96 104.78 314.44
  Q 104.20 315.72 104.17 317.08
  Q 103.90 330.13 104.03 343.67
  Q 104.04 345.31 103.00 344.04
  C 101.57 342.30 100.33 340.36 98.71 338.79
  C 94.99 335.18 92.72 330.74 89.14 327.18
  Q 86.00 324.06 83.40 320.01
  A 0.34 0.34 0.0 0 0 82.77 320.19
  Q 82.71 331.18 82.85 340.16
  Q 82.90 343.72 86.64 343.23
  Q 86.93 343.19 86.95 343.49
  L 86.98 343.96
  Q 86.99 344.22 86.73 344.22
  L 76.48 344.31
  Q 76.32 344.31 76.25 344.16
  L 76.12 343.85
  Q 75.86 343.21 76.55 343.21
  Q 77.98 343.21 79.21 342.75
  A 1.93 1.93 0.0 0 0 80.48 340.95
  L 80.59 317.49
  Q 80.60 316.97 80.30 316.55
  Q 78.31 313.66 74.84 313.56
  Q 74.28 313.55 74.17 313.00
  L 74.10 312.70
  Q 73.99 312.16 74.55 312.17
  L 82.06 312.31
  Q 82.61 312.32 82.97 312.75
  L 101.42 335.11
  Q 102.21 336.06 102.27 334.83
  Z"
/>
<path fill="#cd9933" d="
  M 120.77 314.13
  Q 119.41 313.47 117.45 313.30
  A 0.40 0.40 0.0 0 1 117.08 312.91
  L 117.08 312.61
  Q 117.07 312.23 117.46 312.23
  L 130.36 312.24
  Q 131.03 312.24 130.77 312.86
  L 130.66 313.11
  A 0.69 0.68 -76.6 0 1 129.99 313.53
  Q 126.36 313.26 126.29 315.99
  Q 125.96 329.74 126.34 340.23
  Q 126.46 343.56 130.30 343.04
  A 0.42 0.41 -9.3 0 1 130.77 343.37
  L 130.84 343.79
  Q 130.93 344.29 130.42 344.29
  L 117.55 344.29
  A 0.32 0.32 0.0 0 1 117.24 344.06
  L 117.11 343.68
  A 0.30 0.30 0.0 0 1 117.41 343.29
  Q 121.77 343.50 121.77 339.86
  Q 121.75 326.78 121.77 315.73
  A 1.79 1.78 13.1 0 0 120.77 314.13
  Z"
/>
<path fill="#cd9933" d="
  M 180.88 342.89
  A 1.69 1.68 85.0 0 0 182.24 341.26
  Q 182.44 328.77 182.33 316.48
  Q 182.30 313.23 178.88 313.43
  A 0.53 0.53 0.0 0 1 178.32 312.96
  L 178.28 312.64
  Q 178.23 312.24 178.63 312.24
  Q 184.64 312.27 189.95 312.25
  Q 192.87 312.24 190.29 313.61
  Q 190.21 313.65 189.21 313.76
  A 2.23 2.21 -3.2 0 0 187.24 315.95
  Q 187.16 328.37 187.22 340.25
  Q 187.24 343.28 191.24 343.22
  Q 191.51 343.21 191.45 343.47
  L 191.39 343.76
  Q 191.27 344.28 190.73 344.28
  L 178.73 344.26
  Q 178.56 344.26 178.41 344.16
  Q 178.05 343.94 178.17 343.58
  Q 178.22 343.41 178.40 343.38
  L 180.88 342.89
  Z"
/>
<path fill="#cd9933" d="
  M 379.76 313.84
  Q 378.14 313.92 378.11 315.54
  Q 377.92 326.95 378.03 338.50
  Q 378.05 340.61 378.55 342.17
  Q 378.83 343.02 379.72 342.94
  Q 381.20 342.79 382.02 343.55
  Q 382.82 344.28 381.74 344.28
  L 369.25 344.26
  Q 368.66 344.26 368.83 343.69
  Q 368.87 343.55 368.97 343.45
  Q 369.11 343.32 369.30 343.30
  Q 370.51 343.14 371.71 342.77
  A 2.14 2.14 0.0 0 0 373.22 340.74
  L 373.25 315.84
  A 1.92 1.92 0.0 0 0 371.84 313.99
  L 369.03 313.20
  Q 368.46 313.04 368.83 312.59
  Q 368.94 312.46 369.08 312.36
  Q 369.27 312.22 369.52 312.22
  Q 375.58 312.25 381.33 312.26
  Q 382.76 312.26 381.65 313.16
  Q 380.89 313.78 379.76 313.84
  Z"
/>
<path fill="#cd9933" d="
  M 570.43 328.11
  A 0.71 0.71 0.0 0 0 569.73 328.83
  L 569.80 340.93
  Q 569.81 342.17 571.05 342.21
  Q 575.41 342.33 580.32 342.13
  C 583.42 342.01 584.38 339.75 585.89 337.59
  Q 587.53 335.24 587.03 338.06
  Q 586.75 339.63 585.79 341.90
  C 585.38 342.88 585.01 344.24 583.70 344.25
  Q 571.58 344.31 560.64 344.27
  A 0.21 0.20 -90.0 0 1 560.44 344.06
  L 560.44 343.78
  Q 560.44 343.19 561.02 343.21
  Q 562.94 343.25 564.32 342.43
  Q 565.17 341.92 565.20 340.89
  Q 565.49 327.45 565.14 315.34
  A 1.52 1.52 0.0 0 0 563.83 313.88
  Q 562.30 313.65 562.22 313.62
  Q 558.91 312.33 562.46 312.30
  Q 573.76 312.18 584.18 312.29
  Q 584.87 312.30 584.93 312.99
  Q 585.16 315.77 585.01 318.55
  Q 584.94 319.96 584.47 318.62
  C 583.72 316.46 583.56 314.59 580.59 314.44
  Q 575.52 314.19 570.29 314.24
  A 0.55 0.54 -90.0 0 0 569.75 314.79
  L 569.75 326.24
  A 0.67 0.66 90.0 0 0 570.41 326.91
  Q 574.25 326.89 578.07 326.71
  C 581.21 326.56 580.90 324.79 581.76 322.58
  Q 581.95 322.11 582.41 322.31
  Q 582.60 322.39 582.72 322.56
  Q 582.84 322.73 582.82 322.93
  Q 582.39 327.74 582.50 332.73
  Q 582.51 332.99 582.29 333.08
  Q 581.91 333.24 581.80 332.85
  L 580.90 329.82
  Q 580.77 329.36 580.35 329.13
  C 578.04 327.83 573.07 328.09 570.43 328.11
  Z"
/>
<path fill="#000000" d="
  M 106.06 378.79
  L 104.77 381.67
  Q 104.43 382.44 103.59 382.51
  L 102.81 382.59
  Q 101.91 382.67 102.27 381.84
  C 103.09 379.96 103.55 378.03 104.50 376.19
  Q 106.89 371.57 108.91 366.90
  A 0.80 0.80 0.0 0 1 110.37 366.90
  L 117.01 382.05
  Q 117.21 382.51 116.70 382.51
  L 114.91 382.50
  Q 114.28 382.50 114.09 381.90
  L 113.09 378.77
  Q 112.90 378.17 112.27 378.18
  L 106.98 378.19
  Q 106.33 378.20 106.06 378.79
  Z
  M 109.96 371.57
  A 0.34 0.34 0.0 0 0 109.33 371.57
  L 107.73 375.78
  A 0.34 0.34 0.0 0 0 108.05 376.24
  L 111.30 376.22
  A 0.34 0.34 0.0 0 0 111.62 375.76
  L 109.96 371.57
  Z"
/>
<path fill="#000000" d="
  M 125.95 366.78
  A 0.41 0.41 0.0 0 1 126.36 366.37
  L 132.18 366.39
  A 7.63 7.63 0.0 0 1 139.78 374.04
  L 139.78 374.88
  A 7.63 7.63 0.0 0 1 132.12 382.49
  L 126.30 382.47
  A 0.41 0.41 0.0 0 1 125.89 382.06
  L 125.95 366.78
  Z
  M 128.75 369.03
  L 128.69 379.59
  A 0.42 0.42 0.0 0 0 129.11 380.01
  L 131.66 380.02
  A 5.39 5.17 -89.7 0 0 136.86 374.66
  L 136.86 374.04
  A 5.39 5.17 -89.7 0 0 131.72 368.62
  L 129.17 368.61
  A 0.42 0.42 0.0 0 0 128.75 369.03
  Z"
/>
<path fill="#000000" d="
  M 154.14 376.31
  A 0.43 0.43 0.0 0 0 154.95 376.34
  L 158.78 367.33
  Q 159.17 366.40 160.19 366.38
  L 161.27 366.36
  A 0.54 0.54 0.0 0 1 161.78 367.12
  Q 158.63 374.43 155.06 382.11
  Q 154.92 382.40 154.63 382.54
  A 0.28 0.27 64.3 0 1 154.25 382.40
  L 148.10 367.21
  Q 147.71 366.24 148.75 366.34
  L 149.72 366.43
  A 1.71 1.70 -6.9 0 1 151.18 367.57
  L 154.14 376.31
  Z"
/>
<path fill="#000000" d="
  M 186.81 374.44
  A 8.48 8.48 0.0 0 1 178.33 382.92
  A 8.48 8.48 0.0 0 1 169.85 374.44
  A 8.48 8.48 0.0 0 1 178.33 365.96
  A 8.48 8.48 0.0 0 1 186.81 374.44
  Z
  M 178.1054 380.3693
  A 6.02 5.74 90.9 0 0 183.9393 374.4402
  A 6.02 5.74 90.9 0 0 178.2946 368.3307
  A 6.02 5.74 90.9 0 0 172.4607 374.2598
  A 6.02 5.74 90.9 0 0 178.1054 380.3693
  Z"
/>
<path fill="#000000" d="
  M 209.46 376.51
  L 206.48 376.50
  Q 205.96 376.50 205.96 375.98
  L 205.94 374.93
  A 0.63 0.62 -0.4 0 1 206.57 374.30
  L 211.46 374.32
  Q 212.11 374.32 212.15 374.98
  C 212.31 378.27 211.58 381.49 208.00 382.52
  C 194.14 386.53 191.49 364.52 206.59 366.26
  Q 209.11 366.55 210.76 368.09
  Q 211.17 368.48 210.86 368.94
  Q 210.34 369.69 209.56 369.89
  Q 209.15 369.99 208.79 369.76
  C 201.56 365.00 196.12 373.78 201.30 379.10
  C 203.67 381.55 209.08 380.75 209.94 377.11
  Q 210.08 376.51 209.46 376.51
  Z"
/>
<path fill="#000000" d="
  M 230.57 378.19
  L 225.52 378.15
  Q 224.86 378.15 224.59 378.74
  L 222.99 382.19
  Q 222.86 382.49 222.54 382.50
  L 221.25 382.54
  Q 220.62 382.57 220.79 381.96
  C 221.26 380.29 221.73 378.64 222.54 377.09
  Q 225.15 372.08 227.49 366.78
  A 0.71 0.71 0.0 0 1 228.79 366.78
  L 235.39 381.84
  Q 235.68 382.50 234.95 382.50
  L 233.49 382.50
  Q 232.72 382.50 232.47 381.77
  L 231.46 378.82
  Q 231.24 378.19 230.57 378.19
  Z
  M 226.15 375.73
  A 0.34 0.34 0.0 0 0 226.46 376.21
  L 229.87 376.21
  A 0.34 0.34 0.0 0 0 230.19 375.74
  L 228.49 371.87
  A 0.34 0.34 0.0 0 0 227.86 371.87
  L 226.15 375.73
  Z"
/>
<path fill="#000000" d="
  M 284.98 374.44
  A 8.48 8.48 0.0 0 1 276.50 382.92
  A 8.48 8.48 0.0 0 1 268.02 374.44
  A 8.48 8.48 0.0 0 1 276.50 365.96
  A 8.48 8.48 0.0 0 1 284.98 374.44
  Z
  M 276.3600 380.4000
  A 6.04 5.77 90.0 0 0 282.1300 374.3600
  A 6.04 5.77 90.0 0 0 276.3600 368.3200
  A 6.04 5.77 90.0 0 0 270.5900 374.3600
  A 6.04 5.77 90.0 0 0 276.3600 380.4000
  Z"
/>
<path fill="#000000" d="
  M 301.04 379.88
  A 1.93 1.92 44.6 0 0 301.01 376.48
  C 299.13 375.50 295.28 373.63 294.97 371.33
  C 294.21 365.68 300.82 364.89 303.99 367.56
  A 0.79 0.78 -41.0 0 1 303.90 368.82
  L 303.43 369.11
  Q 302.43 369.73 301.52 368.97
  C 298.61 366.55 296.48 370.57 299.26 372.33
  C 301.85 373.98 305.97 375.37 304.68 379.34
  C 303.20 383.93 296.50 384.30 294.63 379.74
  Q 294.51 379.45 294.74 379.24
  Q 295.42 378.61 296.23 378.26
  Q 296.53 378.13 296.70 378.42
  Q 298.40 381.30 301.04 379.88
  Z"
/>
<path fill="#000000" d="
  M 324.06 378.49
  L 322.33 382.17
  A 0.58 0.58 0.0 0 1 321.80 382.50
  L 320.24 382.49
  A 0.58 0.58 0.0 0 1 319.72 381.66
  L 326.87 366.74
  A 0.58 0.58 0.0 0 1 327.92 366.76
  L 334.71 381.81
  A 0.58 0.58 0.0 0 1 334.13 382.63
  L 332.51 382.47
  A 0.58 0.58 0.0 0 1 332.03 382.13
  L 330.45 378.56
  A 0.58 0.58 0.0 0 0 329.93 378.22
  L 324.59 378.15
  A 0.58 0.58 0.0 0 0 324.06 378.49
  Z
  M 325.52 375.73
  A 0.34 0.34 0.0 0 0 325.83 376.20
  L 329.15 376.22
  A 0.34 0.34 0.0 0 0 329.46 375.75
  L 327.82 371.96
  A 0.34 0.34 0.0 0 0 327.20 371.96
  L 325.52 375.73
  Z"
/>
<path fill="#000000" d="
  M 345.50 378.79
  C 348.15 382.79 352.89 378.10 349.21 376.24
  C 346.64 374.95 342.89 373.27 343.41 369.73
  Q 343.96 365.96 348.83 366.18
  Q 351.32 366.29 352.58 367.79
  Q 352.99 368.28 352.52 368.73
  Q 350.95 370.17 349.69 368.69
  Q 349.35 368.29 348.83 368.23
  Q 347.00 368.02 346.35 369.81
  Q 346.19 370.27 346.42 370.70
  C 348.09 373.77 353.77 374.20 353.37 378.18
  C 352.82 383.69 345.77 384.64 343.16 380.06
  A 0.90 0.90 0.0 0 1 343.53 378.82
  L 344.22 378.46
  A 0.99 0.99 0.0 0 1 345.50 378.79
  Z"
/>
<path fill="#000000" d="
  M 366.09 369.94
  Q 366.04 371.62 367.82 372.57
  Q 370.54 374.02 372.44 375.77
  A 1.67 1.67 0.0 0 1 372.96 376.80
  C 373.77 383.29 365.90 385.14 362.81 380.03
  A 0.76 0.76 0.0 0 1 363.06 378.99
  L 363.98 378.41
  A 0.70 0.70 0.0 0 1 364.92 378.60
  Q 366.79 381.26 369.17 379.90
  A 2.03 2.03 0.0 0 0 369.06 376.32
  C 366.12 374.86 361.84 372.92 363.30 368.80
  C 364.52 365.35 369.93 365.61 372.16 367.60
  A 0.77 0.77 0.0 0 1 372.01 368.86
  L 371.27 369.26
  A 1.17 1.16 -41.3 0 1 370.08 369.19
  L 369.02 368.46
  A 1.87 1.87 0.0 0 0 366.09 369.94
  Z"
/>
<path fill="#000000" d="
  M 399.49 374.43
  A 8.52 8.52 0.0 0 1 390.97 382.95
  A 8.52 8.52 0.0 0 1 382.45 374.43
  A 8.52 8.52 0.0 0 1 390.97 365.91
  A 8.52 8.52 0.0 0 1 399.49 374.43
  Z
  M 390.7675 380.2901
  A 5.95 5.81 93.3 0 0 396.9104 374.6844
  A 5.95 5.81 93.3 0 0 391.4525 368.4099
  A 5.95 5.81 93.3 0 0 385.3096 374.0156
  A 5.95 5.81 93.3 0 0 390.7675 380.2901
  Z"
/>
<path fill="#000000" d="
  M 413.62 378.59
  Q 417.17 382.00 422.16 378.72
  Q 422.78 378.32 422.81 379.05
  L 422.88 380.41
  Q 422.93 381.53 421.90 381.96
  C 414.80 384.96 407.14 379.64 409.41 371.95
  C 411.13 366.12 417.43 364.96 422.45 367.14
  Q 423.00 367.39 422.99 367.99
  L 422.95 369.49
  Q 422.93 370.27 422.27 369.85
  Q 417.19 366.62 413.58 370.20
  C 411.41 372.34 411.38 376.45 413.62 378.59
  Z"
/>
<rect fill="#000000" x="-1.44" y="-8.08" transform="translate(434.81,374.44) rotate(-0.1)" width="2.88" height="16.16" rx="0.67"/>
<path fill="#000000" d="
  M 449.03 378.79
  L 447.80 381.76
  A 1.22 1.20 9.5 0 1 446.74 382.50
  L 445.79 382.56
  Q 444.90 382.60 445.26 381.79
  L 452.01 366.57
  A 0.54 0.54 0.0 0 1 452.88 366.40
  Q 453.37 366.88 453.66 367.52
  Q 456.94 374.75 460.04 382.06
  Q 460.22 382.50 459.75 382.50
  L 458.33 382.51
  Q 457.67 382.52 457.44 381.90
  L 456.29 378.90
  A 1.18 1.18 0.0 0 0 455.19 378.14
  L 449.95 378.17
  Q 449.28 378.17 449.03 378.79
  Z
  M 454.32 376.21
  A 0.34 0.34 0.0 0 0 454.64 375.74
  L 452.94 371.68
  A 0.34 0.34 0.0 0 0 452.31 371.68
  L 450.71 375.77
  A 0.34 0.34 0.0 0 0 451.03 376.24
  L 454.32 376.21
  Z"
/>
<path fill="#000000" d="
  M 469.04 366.88
  A 0.51 0.51 0.0 0 1 469.55 366.37
  L 475.48 366.39
  A 7.72 7.50 -89.8 0 1 482.95 374.13
  L 482.95 374.79
  A 7.72 7.50 -89.8 0 1 475.42 382.49
  L 469.49 382.47
  A 0.51 0.51 0.0 0 1 468.98 381.96
  L 469.04 366.88
  Z
  M 471.95 369.04
  L 471.91 379.60
  A 0.42 0.42 0.0 0 0 472.33 380.02
  L 474.94 380.03
  A 5.25 5.03 -89.8 0 0 479.99 374.79
  L 479.99 373.89
  A 5.25 5.03 -89.8 0 0 474.98 368.63
  L 472.37 368.62
  A 0.42 0.42 0.0 0 0 471.95 369.04
  Z"
/>
<path fill="#000000" d="
  M 509.53 374.43
  A 8.48 8.48 0.0 0 1 501.05 382.91
  A 8.48 8.48 0.0 0 1 492.57 374.43
  A 8.48 8.48 0.0 0 1 501.05 365.95
  A 8.48 8.48 0.0 0 1 509.53 374.43
  Z
  M 500.9408 380.4176
  A 6.06 5.73 91.6 0 0 506.8378 374.5200
  A 6.06 5.73 91.6 0 0 501.2792 368.3024
  A 6.06 5.73 91.6 0 0 495.3822 374.2000
  A 6.06 5.73 91.6 0 0 500.9408 380.4176
  Z"
/>
<path fill="#000000" d="
  M 524.91 368.19
  Q 523.52 368.03 522.74 369.07
  A 1.89 1.88 -52.2 0 0 523.06 371.65
  C 525.78 373.88 531.41 375.47 528.77 380.37
  C 526.66 384.26 521.11 383.55 519.12 379.96
  Q 518.83 379.44 519.29 379.05
  Q 519.85 378.58 520.54 378.36
  A 0.76 0.75 -26.5 0 1 521.39 378.64
  C 521.85 379.26 522.14 379.81 522.91 380.11
  Q 525.36 381.05 526.33 378.94
  A 2.03 2.02 25.7 0 0 525.40 376.29
  C 523.14 375.14 519.67 373.74 519.42 370.84
  C 518.98 365.63 525.05 365.26 528.24 367.30
  A 0.99 0.99 0.0 0 1 528.33 368.90
  Q 526.87 370.09 525.81 368.70
  Q 525.47 368.26 524.91 368.19
  Z"
/>
<path fill="#000000" d="
  M 244.55 367.06
  A 0.69 0.69 0.0 0 1 245.24 366.37
  L 250.98 366.38
  A 7.67 7.47 -89.9 0 1 258.44 374.06
  L 258.44 374.80
  A 7.67 7.47 -89.9 0 1 250.96 382.46
  L 245.22 382.45
  A 0.69 0.69 0.0 0 1 244.53 381.76
  L 244.55 367.06
  Z
  M 247.32 369.22
  L 247.32 379.40
  A 0.60 0.60 0.0 0 0 247.92 380.00
  L 250.39 380.00
  A 5.16 5.05 90.0 0 0 255.44 374.84
  L 255.44 373.78
  A 5.16 5.05 -90.0 0 0 250.39 368.62
  L 247.92 368.62
  A 0.60 0.60 0.0 0 0 247.32 369.22
  Z"
/>
</svg>
